<mxfile host="Electron" agent="Mozilla/5.0 (Windows NT 10.0; Win64; x64) AppleWebKit/537.36 (KHTML, like Gecko) draw.io/24.7.17 Chrome/128.0.6613.36 Electron/32.0.1 Safari/537.36" version="24.7.17">
  <diagram id="C5RBs43oDa-KdzZeNtuy" name="Page-1">
    <mxGraphModel dx="1674" dy="836" grid="1" gridSize="10" guides="1" tooltips="1" connect="1" arrows="1" fold="1" page="1" pageScale="1" pageWidth="827" pageHeight="1169" math="0" shadow="0">
      <root>
        <mxCell id="WIyWlLk6GJQsqaUBKTNV-0" />
        <mxCell id="WIyWlLk6GJQsqaUBKTNV-1" parent="WIyWlLk6GJQsqaUBKTNV-0" />
        <mxCell id="huyRv1el9mZ6nDlzXTm3-4" style="edgeStyle=orthogonalEdgeStyle;rounded=0;orthogonalLoop=1;jettySize=auto;html=1;entryX=0.5;entryY=0;entryDx=0;entryDy=0;" parent="WIyWlLk6GJQsqaUBKTNV-1" source="huyRv1el9mZ6nDlzXTm3-0" target="huyRv1el9mZ6nDlzXTm3-1" edge="1">
          <mxGeometry relative="1" as="geometry" />
        </mxCell>
        <mxCell id="huyRv1el9mZ6nDlzXTm3-5" style="edgeStyle=orthogonalEdgeStyle;rounded=0;orthogonalLoop=1;jettySize=auto;html=1;entryX=0.5;entryY=0;entryDx=0;entryDy=0;" parent="WIyWlLk6GJQsqaUBKTNV-1" source="huyRv1el9mZ6nDlzXTm3-0" target="huyRv1el9mZ6nDlzXTm3-2" edge="1">
          <mxGeometry relative="1" as="geometry" />
        </mxCell>
        <mxCell id="huyRv1el9mZ6nDlzXTm3-0" value="&lt;font style=&quot;font-size: 14px;&quot; face=&quot;Verdana&quot;&gt;animals&amp;nbsp;&lt;/font&gt;&lt;div&gt;&lt;font face=&quot;Verdana&quot;&gt;&lt;span style=&quot;font-size: 14px;&quot;&gt;&lt;br&gt;&lt;/span&gt;&lt;/font&gt;&lt;div&gt;&lt;div&gt;&lt;font style=&quot;font-size: 14px;&quot; face=&quot;Verdana&quot;&gt;- name&lt;/font&gt;&lt;/div&gt;&lt;div&gt;&lt;font style=&quot;font-size: 14px;&quot; face=&quot;Verdana&quot;&gt;- birthdate&lt;/font&gt;&lt;/div&gt;&lt;div&gt;&lt;font style=&quot;font-size: 14px;&quot; face=&quot;Verdana&quot;&gt;- type&lt;/font&gt;&lt;/div&gt;&lt;/div&gt;&lt;/div&gt;" style="rounded=0;whiteSpace=wrap;html=1;" parent="WIyWlLk6GJQsqaUBKTNV-1" vertex="1">
          <mxGeometry x="310" y="10" width="220" height="100" as="geometry" />
        </mxCell>
        <mxCell id="huyRv1el9mZ6nDlzXTm3-7" style="edgeStyle=orthogonalEdgeStyle;rounded=0;orthogonalLoop=1;jettySize=auto;html=1;entryX=0;entryY=0.5;entryDx=0;entryDy=0;" parent="WIyWlLk6GJQsqaUBKTNV-1" source="huyRv1el9mZ6nDlzXTm3-1" target="huyRv1el9mZ6nDlzXTm3-6" edge="1">
          <mxGeometry relative="1" as="geometry">
            <Array as="points">
              <mxPoint x="20" y="270" />
            </Array>
          </mxGeometry>
        </mxCell>
        <mxCell id="huyRv1el9mZ6nDlzXTm3-8" style="edgeStyle=orthogonalEdgeStyle;rounded=0;orthogonalLoop=1;jettySize=auto;html=1;entryX=0;entryY=0.5;entryDx=0;entryDy=0;" parent="WIyWlLk6GJQsqaUBKTNV-1" source="huyRv1el9mZ6nDlzXTm3-1" target="huyRv1el9mZ6nDlzXTm3-9" edge="1">
          <mxGeometry relative="1" as="geometry">
            <mxPoint x="60" y="333" as="targetPoint" />
            <Array as="points">
              <mxPoint x="20" y="340" />
            </Array>
          </mxGeometry>
        </mxCell>
        <mxCell id="huyRv1el9mZ6nDlzXTm3-12" style="edgeStyle=orthogonalEdgeStyle;rounded=0;orthogonalLoop=1;jettySize=auto;html=1;entryX=0;entryY=0.5;entryDx=0;entryDy=0;" parent="WIyWlLk6GJQsqaUBKTNV-1" source="huyRv1el9mZ6nDlzXTm3-1" target="huyRv1el9mZ6nDlzXTm3-10" edge="1">
          <mxGeometry relative="1" as="geometry">
            <Array as="points">
              <mxPoint x="20" y="410" />
            </Array>
          </mxGeometry>
        </mxCell>
        <mxCell id="huyRv1el9mZ6nDlzXTm3-1" value="&lt;font face=&quot;Verdana&quot; style=&quot;font-size: 14px;&quot;&gt;Pets&lt;/font&gt;&lt;div&gt;&lt;font style=&quot;font-size: 14px;&quot; face=&quot;_dHk6iKgitxFHOTg1jyD&quot;&gt;&lt;br&gt;&lt;/font&gt;&lt;div&gt;&lt;font face=&quot;_dHk6iKgitxFHOTg1jyD&quot; style=&quot;font-size: 14px;&quot;&gt;- &lt;/font&gt;&lt;font face=&quot;Verdana&quot; style=&quot;font-size: 14px;&quot;&gt;owner&lt;/font&gt;&lt;/div&gt;&lt;div&gt;&lt;font face=&quot;Verdana&quot; size=&quot;3&quot;&gt;-&amp;nbsp;&lt;span style=&quot;background-color: rgb(248, 249, 250); color: rgb(31, 31, 31); text-align: left;&quot;&gt;list of learned commands&lt;/span&gt;&lt;/font&gt;&lt;/div&gt;&lt;/div&gt;" style="rounded=0;whiteSpace=wrap;html=1;" parent="WIyWlLk6GJQsqaUBKTNV-1" vertex="1">
          <mxGeometry y="110" width="240" height="90" as="geometry" />
        </mxCell>
        <mxCell id="huyRv1el9mZ6nDlzXTm3-16" style="edgeStyle=orthogonalEdgeStyle;rounded=0;orthogonalLoop=1;jettySize=auto;html=1;entryX=1;entryY=0.5;entryDx=0;entryDy=0;" parent="WIyWlLk6GJQsqaUBKTNV-1" source="huyRv1el9mZ6nDlzXTm3-2" target="huyRv1el9mZ6nDlzXTm3-13" edge="1">
          <mxGeometry relative="1" as="geometry">
            <Array as="points">
              <mxPoint x="810" y="260" />
            </Array>
          </mxGeometry>
        </mxCell>
        <mxCell id="huyRv1el9mZ6nDlzXTm3-17" style="edgeStyle=orthogonalEdgeStyle;rounded=0;orthogonalLoop=1;jettySize=auto;html=1;entryX=1;entryY=0.5;entryDx=0;entryDy=0;" parent="WIyWlLk6GJQsqaUBKTNV-1" source="huyRv1el9mZ6nDlzXTm3-2" target="huyRv1el9mZ6nDlzXTm3-14" edge="1">
          <mxGeometry relative="1" as="geometry">
            <Array as="points">
              <mxPoint x="810" y="330" />
            </Array>
          </mxGeometry>
        </mxCell>
        <mxCell id="huyRv1el9mZ6nDlzXTm3-18" style="edgeStyle=orthogonalEdgeStyle;rounded=0;orthogonalLoop=1;jettySize=auto;html=1;" parent="WIyWlLk6GJQsqaUBKTNV-1" source="huyRv1el9mZ6nDlzXTm3-2" target="huyRv1el9mZ6nDlzXTm3-15" edge="1">
          <mxGeometry relative="1" as="geometry">
            <Array as="points">
              <mxPoint x="810" y="400" />
            </Array>
          </mxGeometry>
        </mxCell>
        <mxCell id="huyRv1el9mZ6nDlzXTm3-2" value="&lt;font style=&quot;font-size: 14px;&quot; face=&quot;Verdana&quot;&gt;Pack animals&lt;/font&gt;&lt;div&gt;&lt;br&gt;&lt;/div&gt;&lt;div&gt;&lt;div&gt;&lt;font style=&quot;font-size: 14px;&quot; face=&quot;Verdana&quot;&gt;- members&lt;/font&gt;&lt;/div&gt;&lt;div&gt;&lt;font style=&quot;font-size: 14px;&quot; face=&quot;Verdana&quot;&gt;- flock type&lt;/font&gt;&lt;/div&gt;&lt;/div&gt;" style="rounded=0;whiteSpace=wrap;html=1;" parent="WIyWlLk6GJQsqaUBKTNV-1" vertex="1">
          <mxGeometry x="587" y="110" width="240" height="80" as="geometry" />
        </mxCell>
        <mxCell id="huyRv1el9mZ6nDlzXTm3-6" value="&lt;font face=&quot;Verdana&quot; style=&quot;font-size: 14px;&quot;&gt;dog&lt;/font&gt;&lt;div&gt;&lt;font style=&quot;font-size: 14px;&quot; face=&quot;Verdana&quot;&gt;- breed&lt;/font&gt;&lt;/div&gt;&lt;div&gt;&lt;font style=&quot;font-size: 14px;&quot;&gt;&lt;font face=&quot;QggbABV_K8SNZl7rFCHn&quot;&gt;- &lt;/font&gt;&lt;font face=&quot;Verdana&quot;&gt;training &lt;/font&gt;&lt;/font&gt;&lt;font face=&quot;Verdana&quot; style=&quot;font-size: 14px;&quot;&gt;level&lt;/font&gt;&lt;/div&gt;" style="rounded=0;whiteSpace=wrap;html=1;" parent="WIyWlLk6GJQsqaUBKTNV-1" vertex="1">
          <mxGeometry x="70" y="240" width="150" height="60" as="geometry" />
        </mxCell>
        <mxCell id="huyRv1el9mZ6nDlzXTm3-9" value="&lt;div&gt;&lt;font face=&quot;Verdana&quot; style=&quot;font-size: 14px;&quot;&gt;cat&lt;/font&gt;&lt;/div&gt;&lt;div&gt;&lt;font face=&quot;Verdana&quot; style=&quot;font-size: 14px;&quot;&gt;- coat color&lt;/font&gt;&lt;/div&gt;&lt;div&gt;&lt;font face=&quot;Verdana&quot; size=&quot;3&quot;&gt;- favorite toy&lt;/font&gt;&lt;/div&gt;" style="rounded=0;whiteSpace=wrap;html=1;" parent="WIyWlLk6GJQsqaUBKTNV-1" vertex="1">
          <mxGeometry x="70" y="310" width="150" height="60" as="geometry" />
        </mxCell>
        <mxCell id="huyRv1el9mZ6nDlzXTm3-10" value="&lt;font style=&quot;font-size: 14px;&quot; face=&quot;Verdana&quot;&gt;hamster&lt;/font&gt;&lt;div&gt;&lt;div&gt;&lt;font style=&quot;font-size: 14px;&quot; face=&quot;Verdana&quot;&gt;- lived of years&lt;/font&gt;&lt;/div&gt;&lt;div&gt;&lt;font style=&quot;font-size: 14px;&quot; face=&quot;Verdana&quot;&gt;- cage&lt;/font&gt; &lt;font style=&quot;font-size: 14px;&quot; face=&quot;Verdana&quot;&gt;size&lt;/font&gt;&lt;/div&gt;&lt;/div&gt;" style="rounded=0;whiteSpace=wrap;html=1;" parent="WIyWlLk6GJQsqaUBKTNV-1" vertex="1">
          <mxGeometry x="70" y="380" width="150" height="60" as="geometry" />
        </mxCell>
        <mxCell id="huyRv1el9mZ6nDlzXTm3-13" value="&lt;font style=&quot;font-size: 14px;&quot; face=&quot;Verdana&quot;&gt;horses&lt;/font&gt;&lt;div&gt;&lt;font style=&quot;font-size: 14px;&quot; face=&quot;Verdana&quot;&gt;- coat color&lt;/font&gt;&lt;/div&gt;&lt;div&gt;&lt;font style=&quot;font-size: 14px;&quot; face=&quot;Verdana&quot;&gt;- max speed&lt;/font&gt;&lt;/div&gt;" style="rounded=0;whiteSpace=wrap;html=1;" parent="WIyWlLk6GJQsqaUBKTNV-1" vertex="1">
          <mxGeometry x="587" y="230" width="150" height="60" as="geometry" />
        </mxCell>
        <mxCell id="huyRv1el9mZ6nDlzXTm3-14" value="&lt;font style=&quot;font-size: 14px;&quot; face=&quot;Verdana&quot;&gt;camel&lt;/font&gt;&lt;div&gt;&lt;div&gt;&lt;font style=&quot;font-size: 14px;&quot; face=&quot;Verdana&quot;&gt;- numbers of humps&lt;/font&gt;&lt;/div&gt;&lt;div&gt;&lt;font style=&quot;font-size: 14px;&quot; face=&quot;Verdana&quot;&gt;- habitat&lt;/font&gt;&lt;/div&gt;&lt;/div&gt;" style="rounded=0;whiteSpace=wrap;html=1;" parent="WIyWlLk6GJQsqaUBKTNV-1" vertex="1">
          <mxGeometry x="587" y="300" width="150" height="60" as="geometry" />
        </mxCell>
        <mxCell id="huyRv1el9mZ6nDlzXTm3-15" value="&lt;div&gt;&lt;span style=&quot;font-size: 14px; font-family: Verdana; background-color: rgb(248, 249, 250); color: rgb(31, 31, 31); text-align: left; white-space-collapse: preserve;&quot;&gt;donkey&lt;/span&gt;&lt;br&gt;&lt;/div&gt;&lt;div&gt;&lt;span style=&quot;color: rgb(31, 31, 31); text-align: left; white-space-collapse: preserve; background-color: rgb(248, 249, 250);&quot;&gt;&lt;font face=&quot;Verdana&quot; style=&quot;font-size: 14px;&quot;&gt;- lifting capacity&lt;/font&gt;&lt;/span&gt;&lt;/div&gt;&lt;div&gt;&lt;span style=&quot;color: rgb(31, 31, 31); text-align: left; white-space-collapse: preserve; background-color: rgb(248, 249, 250);&quot;&gt;&lt;font face=&quot;Verdana&quot; style=&quot;font-size: 14px;&quot;&gt;- speed&lt;/font&gt;&lt;/span&gt;&lt;/div&gt;" style="rounded=0;whiteSpace=wrap;html=1;" parent="WIyWlLk6GJQsqaUBKTNV-1" vertex="1">
          <mxGeometry x="587" y="370" width="150" height="60" as="geometry" />
        </mxCell>
        <mxCell id="GTqPN5jbfNMiw_ceFqZC-1" value="сделать так" style="swimlane;fontStyle=0;childLayout=stackLayout;horizontal=1;startSize=30;horizontalStack=0;resizeParent=1;resizeParentMax=0;resizeLast=0;collapsible=1;marginBottom=0;whiteSpace=wrap;html=1;" parent="WIyWlLk6GJQsqaUBKTNV-1" vertex="1">
          <mxGeometry x="340" y="150" width="140" height="90" as="geometry" />
        </mxCell>
        <mxCell id="GTqPN5jbfNMiw_ceFqZC-2" value="из типов сделать справочник" style="text;strokeColor=none;fillColor=none;align=left;verticalAlign=middle;spacingLeft=4;spacingRight=4;overflow=hidden;points=[[0,0.5],[1,0.5]];portConstraint=eastwest;rotatable=0;whiteSpace=wrap;html=1;" parent="GTqPN5jbfNMiw_ceFqZC-1" vertex="1">
          <mxGeometry y="30" width="140" height="30" as="geometry" />
        </mxCell>
        <mxCell id="GTqPN5jbfNMiw_ceFqZC-3" value="попробовать сделать типы данных - строка, число" style="text;strokeColor=none;fillColor=none;align=left;verticalAlign=middle;spacingLeft=4;spacingRight=4;overflow=hidden;points=[[0,0.5],[1,0.5]];portConstraint=eastwest;rotatable=0;whiteSpace=wrap;html=1;" parent="GTqPN5jbfNMiw_ceFqZC-1" vertex="1">
          <mxGeometry y="60" width="140" height="30" as="geometry" />
        </mxCell>
      </root>
    </mxGraphModel>
  </diagram>
</mxfile>
